<?xml version="1.0" encoding="UTF-8"?>
<svg id="Lag_1" data-name="Lag 1" xmlns="http://www.w3.org/2000/svg" viewBox="0 0 980.32 1022.83">
  <defs>
    <style>
      .cls-1 {
        fill: #fff;
      }
    </style>
  </defs>
  <path class="cls-1" d="M970.14,208.71C912.9,41.74,626.3,0,490.16,0S67.42,41.74,10.18,208.71c-57.2,166.85,136.42,572.39,334.21,756.97,40.82,38.1,93.29,57.15,145.77,57.15s104.94-19.05,145.77-57.15c197.79-184.58,391.41-590.13,334.21-756.97ZM882.91,573.39c-68.15,150.11-164.89,292.03-258.78,379.64-36.28,33.85-83.85,52.5-133.97,52.5s-97.69-18.64-133.97-52.5c-93.88-87.61-190.62-229.54-258.78-379.64C28.21,420.97,1.71,286.74,26.54,214.31c12.22-35.64,37.09-67.51,73.92-94.75,32.77-24.23,74.99-44.89,125.49-61.38,92.27-30.15,196.98-40.89,264.21-40.89s171.94,10.74,264.21,40.89c50.5,16.5,92.72,37.15,125.49,61.38,36.83,27.24,61.71,59.12,73.92,94.75,24.83,72.42-1.67,206.66-70.87,359.08Z"/>
  <path class="cls-1" d="M875.32,325.63c-4.04,0-8.98,2.03-14.79,6.07l-35.26,24.64c-5.82,5.06-11.51,9.48-17.07,13.27-4.8-7.33-9.92-13.08-15.35-17.25-5.44-4.17-9.92-7.83-13.46-10.99-3.55-3.16-5.56-6.38-6.07-9.67-.51-3.28,1.77-7.71,6.82-13.27,1.52-1.51,2.66-2.65,3.42-3.41.75-.76,1.51-1.26,2.27-1.52.76-.25,1.71-.5,2.85-.76,1.14-.25,2.84-.63,5.12-1.14,1.26-4.8,1.2-8.21-.19-10.24-1.39-2.02-3.47-3.03-6.26-3.03s-5.94.89-9.48,2.65c-3.54,1.77-6.89,4.24-10.05,7.4-3.16,3.16-5.82,6.89-7.96,11.18-2.15,4.3-3.22,8.85-3.22,13.65,0,.42.07.8.09,1.2-3.52,3.41-7.31,7.09-11.47,11.12-4.55,4.43-9.29,8.47-14.22,12.13-4.93,3.66-9.55,5.5-13.84,5.5-3.55,0-6.64-1.83-9.29-5.5-2.66-3.66-4.62-10.05-5.88-19.15-.25-2.52-.25-5.74,0-9.67.25-3.91.31-7.77.19-11.56-.13-3.79-.63-7.02-1.51-9.67-.89-2.66-2.59-3.98-5.12-3.98-3.54,0-6.2,1.33-7.96,3.98-1.77,2.65-3.92,5.75-6.45,9.29l-22.75,33.36c-2.03,2.53-4.11,5.25-6.26,8.15-2.15,2.91-4.74,4.87-7.78,5.88-1.51-6.31-1.46-13.27.19-20.85,1.64-7.58,3.73-14.72,6.26-21.42,2.53-6.7,4.99-12.38,7.39-17.07,2.4-4.67,3.6-7.14,3.6-7.39,0-1.77-.19-2.9-.57-3.41-.38-.5-.7-1.38-.95-2.66-2.27-1.26-4.55-1.89-6.82-1.89-2.79,0-5.56,1.51-8.34,4.55-2.27,3.03-4.49,6.82-6.63,11.38-2.15,4.55-4.05,9.29-5.69,14.22-1.64,4.93-2.91,9.92-3.79,14.98-.38,2.15-.63,4.16-.85,6.12-1.04,2.04-2.09,4.09-3.13,6.01-1.51,2.79-3.16,5.56-4.93,8.34-1.52,2.27-3.22,4.87-5.11,7.78-1.9,2.91-3.86,5.69-5.88,8.34-2.03,2.65-4.3,4.99-6.83,7.01-2.53,2.03-5.18,3.41-7.96,4.17-2.53-4.8-3.98-9.6-4.36-14.41-.38-4.8-.57-10.86-.57-18.2,0-1.77-.06-4.3-.19-7.58-.13-3.28-.44-6.57-.95-9.86-.51-3.28-1.33-6.19-2.46-8.72-1.14-2.52-2.72-3.79-4.74-3.79-5.82,0-9.99,1.77-12.51,5.31-2.53,3.54-5.18,7.84-7.96,12.89-4.05,7.33-7.39,13.78-10.05,19.34-2.65,5.56-5.06,10.94-7.2,16.12-2.15,5.18-4.17,10.56-6.07,16.11-1.89,5.56-4.11,12.14-6.63,19.72l-3.03,7.2-1.14-42.47c0-18.96.88-38.92,2.66-59.91,1.76-20.98,4.04-40.19,6.82-57.63,1.01-6.57,2.4-13.84,4.17-21.8,1.77-7.96,2.02-14.85.76-20.66-1.27-.25-2.4-.44-3.41-.57-1.02-.13-1.9-.19-2.66-.19-2.03,0-3.48.82-4.36,2.46-.89,1.65-2.22,5-3.98,10.05-.76,3.03-1.51,5.75-2.27,8.15-.76,2.4-1.52,5.37-2.27,8.91-2.79,12.89-4.93,25.73-6.45,38.49-1.52,12.76-2.79,25.72-3.79,38.86l-.32,6.1c-3.17-.25-6.44-.42-9.91-.42-3.29,0-6.39.07-9.29.19-2.91.13-5.25.19-7.01.19-5.82,0-9.86,1.33-12.14,3.98-2.27,2.66-4.8,5-7.58,7.02,0-2.52.12-4.1.38-4.74.25-.63.38-2.34.38-5.12v-6.07c0-2.02.12-4.04.38-6.07.5-5.31.69-9.6.57-12.89-.13-3.28-2.72-4.93-7.77-4.93-2.03,0-3.67,2.09-4.93,6.26-1.27,4.17-2.22,8.91-2.84,14.22-.63,5.31-1.02,10.49-1.14,15.55,0,.14,0,.25,0,.39-1.39,1.57-2.54,3.03-3.4,4.35-1.39,2.15-3.86,4.87-7.39,8.15-8.6,8.6-16.44,12.89-23.51,12.89-4.05,0-7.65-1.57-10.81-4.74-3.16-3.16-5.5-8.15-7.01-14.98-.76-3.54-1.14-7.2-1.14-10.99s-.13-7.2-.38-10.24c-.25-3.03-.95-5.5-2.09-7.39-1.14-1.9-3.35-2.84-6.63-2.84-1.27,0-3.1,1.77-5.5,5.31-2.41,3.55-4.93,7.65-7.59,12.32-2.65,4.68-5.31,9.48-7.96,14.41-2.66,4.93-4.99,8.91-7.02,11.94l-3.03,4.55c-1.01,1.27-1.46,1.77-1.33,1.51.13-.25-.07-.13-.57.38,0-6.31,1.07-12.7,3.23-19.15,2.14-6.45,4.48-11.69,7.01-15.74,5.56-9.6,10.3-16.05,14.22-19.34,3.91-3.28,7.26-4.93,10.05-4.93,3.54,0,6.57,1.46,9.1,4.36,2.53,2.91,5.18,4.36,7.96,4.36,2.52,0,3.85-1.14,3.98-3.41.13-2.27-.7-4.74-2.46-7.39-1.77-2.66-4.3-5.12-7.58-7.39-3.29-2.27-7.2-3.41-11.75-3.41-6.58,0-12.84,2.59-18.77,7.77-4.96,4.33-9.37,9.51-13.27,15.42-.33-.4-.71-.81-1.14-1.2-1.65-1.52-4.23-2.27-7.77-2.27-4.8,0-8.91.38-12.32,1.14-3.41.76-7.27,1.14-11.56,1.14,0-4.3.31-8.09.95-11.38.63-3.28,1.2-6.95,1.7-11,1.26-8.34,3.23-19.91,5.88-34.69,2.66-14.79,5.37-29.95,8.15-45.5,2.78-15.55,5.24-30.08,7.39-43.6,2.14-13.52,3.22-23.32,3.22-29.38v-10.62c0-4.04-.51-7.9-1.51-11.56-1.02-3.66-2.72-6.82-5.12-9.48-2.41-2.65-6.01-3.98-10.81-3.98-4.3,0-8.78,1.33-13.46,3.98-4.68,2.66-9.17,5.88-13.46,9.67-4.3,3.79-8.22,7.72-11.76,11.76-3.54,4.05-6.32,7.46-8.34,10.23-12.39,15.17-23.7,32.3-33.94,51.38-10.24,19.09-19.34,38.93-27.3,59.53-7.96,20.61-14.92,41.46-20.85,62.56-5.94,21.11-11.06,41.39-15.35,60.85-.51,2.78-1.14,4.87-1.9,6.26s-1.77,2.72-3.03,3.98c-1.27,1.27-3.1,2.72-5.5,4.36-2.41,1.64-5.5,4.11-9.29,7.39-6.07,5.06-13.02,11.38-20.85,18.96-7.84,7.58-15.23,15.74-22.18,24.45-6.96,8.72-12.89,17.76-17.82,27.11-4.93,9.35-7.52,18.2-7.78,26.54,0,6.07,1.71,11.31,5.12,15.73,3.42,4.42,8.02,6.64,13.84,6.64,9.35,0,17.76-2.97,25.22-8.91,7.45-5.94,14.03-13.46,19.71-22.56,5.69-9.1,10.55-18.96,14.6-29.58,4.04-10.62,7.45-20.54,10.24-29.76,2.78-9.23,4.99-17.06,6.63-23.51,1.64-6.45,2.84-10.05,3.6-10.81,0-.25.63-.82,1.9-1.7,1.26-.89,2.65-1.9,4.17-3.03,1.51-1.14,2.97-2.14,4.36-3.03,1.38-.89,2.33-1.45,2.84-1.71,6.83-4.29,12.26-7.77,16.31-10.43,4.04-2.65,7.96-4.99,11.75-7.01,3.79-2.02,7.96-4.17,12.51-6.45,4.55-2.27,10.62-5.31,18.2-9.1,6.83-3.54,13.14-6.26,18.96-8.15,5.81-1.9,10.49-3.73,14.03-5.5,0,5.31-.32,9.99-.95,14.03-.63,4.04-1.2,8.6-1.71,13.65l-11.75,110.72c-.26,4.29-.57,9.16-.95,14.6-.38,5.43-.75,10.86-1.14,16.3-.38,5.43-.7,10.62-.95,15.55-.25,4.93-.38,9.03-.38,12.32,0,3.54-.19,6-.57,7.39-.38,1.38-.57,3.6-.57,6.63-.26,2.78-.44,7.2-.57,13.27-.13,6.07.06,12.19.57,18.39.5,6.19,1.45,11.62,2.84,16.31,1.38,4.67,3.47,7.02,6.25,7.02s4.67-.64,5.69-1.9c1.01-1.27,1.52-3.16,1.52-5.69s-.19-5.82-.57-9.86c-.38-4.04-.57-8.98-.57-14.79,0-6.58.19-12.51.57-17.82.38-5.31.57-10.87.57-16.68l18.2-196.78c.5-4.04,1.14-6.44,1.9-7.2.76-.76,2.9-1.51,6.45-2.27,5.05-1.01,8.91-1.64,11.56-1.9,2.65-.25,4.61-.38,5.87-.38,1.01,0,1.58.13,1.71.38.13.26.19.44.19.57s.25.32.76.57c.31.16.9.26,1.7.32-2.69,5.27-4.98,10.66-6.82,16.17-2.66,7.96-3.98,14.6-3.98,19.91,0,6.83.76,11.89,2.27,15.17,1.52,3.29,5.81,4.93,12.89,4.93,2.78,0,5.56-1.89,8.34-5.69s5.5-8.02,8.15-12.7c2.66-4.67,5.12-9.22,7.39-13.65,2.27-4.42,4.3-7.26,6.07-8.53,0,4.04.76,8.22,2.27,12.51,1.52,4.3,3.6,8.15,6.26,11.56,2.66,3.41,5.88,6.26,9.67,8.53,3.79,2.27,8.09,3.41,12.89,3.41,6.82,0,13.9-2.52,21.23-7.58l11.38-9.1c.62-.58,1.16-1.14,1.73-1.7,0,1.52.01,3.04-.03,4.55-.13,4.68-.07,9.29.19,13.84,0,.76-.13,2.27-.38,4.55-.25,2.28-.32,4.62-.19,7.02.13,2.4.57,4.62,1.33,6.63.76,2.03,2.02,3.03,3.79,3.03,3.03,0,5.12-.69,6.26-2.09,1.14-1.38,1.83-3.22,2.09-5.5.25-2.27.38-4.74.38-7.39s.25-5.24.76-7.77c.76-4.55,1.9-8.72,3.41-12.51,1.52-3.79,3.29-7.33,5.31-10.62,1.52-2.53,2.84-4.42,3.98-5.69,1.14-1.26,2.47-2.21,3.98-2.84,1.51-.62,3.41-1.01,5.69-1.14,2.28-.12,5.18-.19,8.72-.19,2.02,0,4.36.07,7.01.19,2.66.13,5.25.19,7.78.19.07,0,.14,0,.21,0l-1.35,25.41c0,2.78.13,8.59.38,17.44.26,8.85.89,18.01,1.9,27.49,1.01,9.48,2.52,17.88,4.55,25.21,2.02,7.33,4.67,10.99,7.96,10.99,3.54,0,6.13-.57,7.77-1.71,1.64-1.14,3.09-3.73,4.36-7.77,2.28-7.08,4.36-14.47,6.26-22.18,1.9-7.71,4.36-15.61,7.4-23.7,1.26-2.78,2.97-6.88,5.11-12.32,2.15-5.43,4.49-10.87,7.02-16.31,2.53-5.43,5.05-10.49,7.58-15.16,2.53-4.67,4.67-7.64,6.45-8.91,0,5.31.13,11.56.38,18.77.25,7.2.76,12.96,1.51,17.25,2.53,14.92,7.96,22.37,16.31,22.37,4.55,0,8.97-1.71,13.27-5.12,4.3-3.41,8.34-7.58,12.14-12.51,3.08-4,5.84-8.11,8.42-12.27.22,1.48.48,2.93.87,4.31.88,3.16,2.4,5.75,4.55,7.77,2.14,2.03,5.37,3.03,9.67,3.03,3.03,0,6.26-1.58,9.67-4.74,3.42-3.16,6.83-6.82,10.24-10.99,3.41-4.17,6.5-8.53,9.29-13.08,2.78-4.55,4.93-8.09,6.45-10.62,1.26-2.02,2.97-4.74,5.12-8.15,2.14-3.41,3.98-5.62,5.5-6.63,0,4.55.19,9.67.57,15.36.38,5.69,1.45,11.12,3.22,16.3,1.77,5.19,4.42,9.48,7.96,12.89,3.54,3.42,8.47,5.12,14.79,5.12,5.81,0,11.69-1.7,17.63-5.12,5.94-3.41,11.43-7.51,16.49-12.32,1.26-1.01,3.09-2.59,5.5-4.74,2.06-1.84,4.13-3.86,6.19-5.99,2.72,3.19,5.89,6.32,9.54,9.4,4.04,3.42,8.21,7.08,12.51,11,4.3,3.92,7.96,8.53,11,13.84-1.52,2.27-4.8,5.88-9.86,10.8-5.06,4.93-10.3,10.81-15.74,17.63-5.44,6.83-10.37,14.28-14.79,22.37-4.42,8.09-6.63,16.43-6.63,25.02,0,6.83,1.7,12.01,5.12,15.55,3.41,3.54,7.77,5.31,13.08,5.31,5.81,0,12-2.22,18.58-6.63,6.57-4.43,12.63-11.32,18.2-20.67,6.31-10.87,10.43-20.41,12.32-28.63,1.9-8.22,2.71-15.17,2.46-20.85-.25-5.69-.95-10.3-2.09-13.84-1.14-3.54-1.58-5.94-1.33-7.2.25-.76,1.83-2.4,4.74-4.93,2.9-2.52,6.19-5.24,9.86-8.15,3.66-2.9,7.2-5.56,10.62-7.96,3.41-2.4,5.62-3.85,6.63-4.36l25.78-17.82c4.3-2.53,6.69-5.06,7.2-7.58.5-2.53-.76-3.79-3.79-3.79ZM176.17,419.28c-2.27,10.11-7.08,22.49-14.41,37.16-1.51,3.28-3.67,7.14-6.45,11.56-2.79,4.42-5.94,8.72-9.48,12.89-3.54,4.17-7.33,7.71-11.38,10.62-4.04,2.9-8.09,4.36-12.13,4.36-1.52,0-2.53-.13-3.03-.38-.51-.26-1.52-.51-3.03-.76-1.52-6.82-.89-13.91,1.9-21.23,2.78-7.33,6.57-14.47,11.37-21.42,4.8-6.96,10.05-13.46,15.74-19.53,5.69-6.07,10.67-11.25,14.98-15.55,1.01-1.01,2.46-2.46,4.36-4.36,1.9-1.9,3.98-3.73,6.26-5.5,2.27-1.77,4.49-3.42,6.63-4.93,2.14-1.51,3.73-2.4,4.74-2.66-1.77,3.03-3.79,9.6-6.07,19.72ZM320.82,231.78c-1.9,10.49-3.73,20.73-5.5,30.71-1.77,9.99-3.16,19.02-4.17,27.11-.51,3.79-1.02,7.84-1.52,12.13-.51,4.3-1.27,8.22-2.27,11.75-2.03,1.02-4.3,1.9-6.82,2.66-2.53.76-5.06,1.39-7.59,1.9-6.32,2.27-13.02,5.06-20.09,8.34-7.08,3.29-13.52,6.32-19.34,9.1l-37.16,20.48c-2.03,1.27-4.11,2.65-6.26,4.17-2.15,1.51-4.36,2.65-6.63,3.41.25-2.02.76-4.74,1.51-8.15.76-3.41,1.65-7.01,2.66-10.8,1.01-3.79,1.96-7.52,2.84-11.19.88-3.66,1.57-6.5,2.09-8.53,1.76-6.31,3.79-13.39,6.06-21.23,2.28-7.83,4.74-15.86,7.4-24.08,2.65-8.21,5.43-16.11,8.34-23.7,2.9-7.58,5.62-14.4,8.15-20.47l15.55-33.37c3.28-6.32,7.96-14.66,14.03-25.02,6.07-10.36,12.71-20.47,19.91-30.33,7.2-9.86,14.6-18.45,22.18-25.78,7.58-7.33,14.53-11.12,20.85-11.38,2.02,3.29,3.16,7.84,3.42,13.65.25,5.82.06,11.88-.57,18.2-.63,6.32-1.51,12.39-2.65,18.2-1.14,5.82-2.09,10.49-2.84,14.03-1.77,8.34-3.67,17.51-5.69,27.49-2.02,9.99-3.98,20.22-5.87,30.71ZM799.68,408.47c-.13,4.42-.82,8.78-2.09,13.08-1.77,6.32-4.62,13.33-8.53,21.04-3.92,7.71-8.4,13.46-13.46,17.25-1.27,1.26-2.91,2.46-4.93,3.6-2.02,1.14-3.92,1.71-5.69,1.71-3.29,0-4.93-2.66-4.93-7.96,0-7.58,2.21-15.29,6.64-23.13,4.42-7.84,8.91-14.53,13.46-20.09,2.28-2.78,5.37-6.39,9.29-10.8,3.92-4.43,7.39-7.52,10.43-9.29,0,5.31-.06,10.17-.19,14.6Z"/>
  <path class="cls-1" d="M359.69,593.69c6.3,0,11.66-1.2,16.09-3.6,4.43-2.4,7.81-5.89,10.13-10.44,2.32-4.56,3.49-10.06,3.49-16.51v-34.82h-30.14v14.75h13.96v20.32c0,4.81-1.19,8.53-3.58,11.18-2.38,2.65-5.71,3.97-9.96,3.97-4.49,0-7.95-1.2-10.39-3.6-2.44-2.4-3.66-5.76-3.66-10.08v-62.18c0-4.92,1.18-8.71,3.53-11.39,2.35-2.67,5.69-4.01,10-4.01,3.86,0,6.83,1.26,8.9,3.77,2.07,2.51,3.11,6.09,3.11,10.73v5.9h17.2v-5.9c0-6.28-1.15-11.63-3.45-16.06-2.3-4.42-5.62-7.8-9.96-10.12-4.34-2.32-9.61-3.48-15.8-3.48s-11.66,1.2-16.09,3.6c-4.43,2.4-7.81,5.87-10.13,10.4-2.32,4.53-3.49,10.05-3.49,16.55v62.18c0,6.12,1.18,11.32,3.53,15.61,2.35,4.29,5.79,7.56,10.3,9.83,4.52,2.26,9.98,3.4,16.39,3.4Z"/>
  <path class="cls-1" d="M446.87,568.87c0,3.17-.81,5.57-2.43,7.21-1.62,1.64-4.1,2.46-7.45,2.46s-5.79-.79-7.49-2.38c-1.7-1.58-2.55-3.9-2.55-6.96v-61.77h-16.18v62.43c0,7.81,1.66,13.74,4.98,17.78,3.32,4.04,8.25,6.06,14.77,6.06,4.31,0,7.92-1.19,10.81-3.56,2.24-1.84,4.08-4.42,5.54-7.71v10.04h16.18v-85.04h-16.18v61.44Z"/>
  <rect class="cls-1" x="485.1" y="507.42" width="16.18" height="85.04"/>
  <rect class="cls-1" x="485.1" y="474.41" width="16.18" height="15.57"/>
  <path class="cls-1" d="M530.43,587.06c3.26,3.88,8.56,5.82,15.88,5.82h8.34v-14.75h-6.47c-2.1,0-3.7-.68-4.81-2.05-1.11-1.36-1.66-3.28-1.66-5.73v-48.17h12.94v-14.75h-12.94v-24.74h-16.18v24.74h-9.02v14.75h9.02v48.17c0,7.26,1.63,12.84,4.9,16.71Z"/>
  <path class="cls-1" d="M598.67,541.34c-9.08,0-15.91,2.36-20.48,7.09-4.57,4.72-6.85,11.87-6.85,21.42,0,7.98,1.83,13.94,5.49,17.9,3.66,3.96,9.09,5.94,16.31,5.94,3.91,0,7.19-.7,9.83-2.09,2.64-1.39,4.63-3.51,5.96-6.35.11-.24.2-.52.3-.77v7.98h15.75v-62.18c0-7.75-2.28-13.75-6.85-17.98-4.57-4.23-11-6.35-19.28-6.35s-14.5,2.12-18.98,6.35c-4.49,4.23-6.73,10.23-6.73,17.98h15.75c0-3.44.86-6.1,2.56-7.99,1.7-1.89,4.03-2.83,6.98-2.83,3.41,0,6.06.94,7.96,2.83,1.9,1.88,2.85,4.55,2.85,7.99v11.06h-10.56ZM606.25,576.53c-1.98,2.16-4.99,3.24-9.02,3.24-3.47,0-6.06-.82-7.79-2.46-1.74-1.64-2.6-4.12-2.6-7.46,0-4.86.99-8.51,2.98-10.94,1.99-2.43,4.97-3.64,8.94-3.64h10.48v11.55c0,4.32-.99,7.55-2.98,9.71Z"/>
  <path class="cls-1" d="M663.38,519.43v-12.01h-16.18v85.04h16.18v-53.58c.12-5.35,2.03-9.59,5.75-12.7,3.71-3.11,8.87-4.67,15.45-4.67h3.06v-15.57c-5.5,0-10.51,1.45-15.03,4.34-3.63,2.33-6.69,5.4-9.24,9.14Z"/>
  <path class="cls-1" d="M746.86,549.86c-2.25-1.8-4.71-3.22-7.41-4.26-2.7-1.04-5.38-1.97-8.04-2.79-2.38-.76-4.58-1.58-6.6-2.46-2.02-.87-3.64-2.06-4.89-3.57-1.25-1.5-1.88-3.53-1.88-6.1,0-3.44.8-6.12,2.38-8.03,1.59-1.91,3.78-2.87,6.56-2.87s5.03.87,6.6,2.62c1.56,1.75,2.34,4.15,2.34,7.21v.66h16.01v-.49c0-7.43-2.22-13.26-6.65-17.49-4.43-4.23-10.53-6.35-18.3-6.35s-13.81,2.23-18.26,6.68c-4.46,4.45-6.69,10.58-6.69,18.39,0,4.26.65,7.83,1.96,10.69,1.31,2.87,3.04,5.22,5.19,7.05,2.16,1.83,4.53,3.33,7.11,4.51,2.58,1.17,5.15,2.23,7.71,3.15,2.55.87,4.92,1.78,7.11,2.7,2.19.93,3.94,2.12,5.28,3.56,1.33,1.45,2,3.48,2,6.1,0,3.44-.95,6.14-2.85,8.11-1.9,1.97-4.52,2.95-7.87,2.95s-6.04-1.02-7.92-3.07c-1.87-2.05-2.81-4.9-2.81-8.56v-.66h-16.01v.66c0,7.86,2.38,14.08,7.15,18.64,4.77,4.56,11.29,6.84,19.58,6.84s14.82-2.21,19.58-6.64c4.77-4.42,7.15-10.51,7.15-18.27,0-4.8-.69-8.71-2.09-11.72-1.39-3-3.21-5.41-5.45-7.21Z"/>
  <polygon class="cls-1" points="380.93 846.31 382.64 838.64 360.26 833.67 360.26 833.67 356.04 832.74 342.28 894.71 350.37 896.51 350.37 896.51 368.87 900.62 370.57 892.94 352.08 888.84 356.36 869.57 372.72 873.21 374.43 865.53 358.06 861.9 362.43 842.21 380.93 846.31"/>
  <path class="cls-1" d="M404.01,841.31c-4.9-.71-8.84,0-11.82,2.13-2.98,2.13-4.81,5.54-5.5,10.23l-.52,3.63c-.38,2.62-.31,4.87.21,6.76.52,1.89,1.35,3.52,2.47,4.9,1.12,1.38,2.39,2.6,3.81,3.66,1.42,1.06,2.86,2.05,4.31,2.96s2.8,1.85,4.05,2.79c1.24.95,2.21,2.01,2.91,3.18.7,1.18.92,2.61.68,4.31l-.8,5.49c-.33,2.28-1.17,3.94-2.53,4.99-1.36,1.05-3.15,1.42-5.37,1.1-2.28-.33-3.93-1.19-4.98-2.6-1.05-1.4-1.41-3.24-1.08-5.51l.41-2.81-8.21-1.19-.45,3.11c-.46,3.17-.26,5.94.61,8.31.86,2.38,2.35,4.3,4.46,5.76,2.11,1.47,4.81,2.44,8.1,2.92,4.86.7,8.78-.03,11.74-2.2,2.96-2.18,4.79-5.64,5.48-10.39l.83-5.74c.39-2.65.33-4.9-.15-6.73-.48-1.83-1.26-3.38-2.33-4.64-1.07-1.26-2.28-2.36-3.63-3.3-1.35-.95-2.71-1.86-4.08-2.73-1.53-.99-2.99-1.95-4.37-2.9-1.38-.95-2.45-2.04-3.21-3.29-.77-1.24-1.01-2.78-.75-4.63l.57-3.93c.31-2.13,1.15-3.69,2.51-4.67,1.36-.98,3.18-1.3,5.46-.98,2.13.31,3.67,1.15,4.62,2.52.95,1.37,1.25,3.21.92,5.52l-.42,2.94,8.21,1.19.48-3.28c.68-4.72-.06-8.54-2.22-11.46-2.17-2.92-5.64-4.72-10.42-5.41Z"/>
  <polygon class="cls-1" points="453.32 854.82 453.92 846.98 423.19 844.6 422.58 852.43 433.81 853.31 429.51 908.76 437.78 909.4 442.08 853.95 453.32 854.82"/>
  <rect class="cls-1" x="452.19" y="901.69" width="8.73" height="8.73" transform="translate(-467.15 1325.76) rotate(-87.69)"/>
  <path class="cls-1" d="M502.42,902.73l11.13-22.5c1.89-3.8,3.27-7.32,4.13-10.56.86-3.24,1.25-6.09,1.15-8.57v-.09c-.2-5.03-1.56-8.78-4.07-11.25-2.51-2.46-6.15-3.6-10.93-3.41-4.74.18-8.26,1.85-10.58,4.98-2.31,3.14-3.34,7.67-3.11,13.6v.17s8.52-.33,8.52-.33v-.17c-.14-3.28.3-5.79,1.32-7.5,1.01-1.71,2.57-2.61,4.7-2.7,1.77-.07,3.13.48,4.08,1.63.94,1.16,1.47,2.9,1.56,5.23v.13c.09,2.09-.29,4.54-1.15,7.34-.85,2.8-2.16,5.91-3.91,9.33l-13.23,25.82.28,7.11,28.36-1.11-.31-7.85-17.93.7Z"/>
  <path class="cls-1" d="M555.99,856.65c-.49-4.6-2.1-8.03-4.83-10.29-2.73-2.26-6.34-3.14-10.82-2.66-4.48.48-7.82,2.11-10.02,4.89-2.19,2.78-3.04,6.47-2.54,11.08l3.8,35.51c.49,4.6,2.1,8.03,4.83,10.28,2.73,2.26,6.34,3.14,10.83,2.66,4.48-.48,7.82-2.11,10.01-4.89,2.19-2.78,3.04-6.47,2.55-11.07l-3.8-35.51ZM550.53,898.11c-.9,1.27-2.28,2-4.13,2.2-1.85.2-3.35-.23-4.5-1.27-1.16-1.05-1.84-2.63-2.07-4.74l-3.8-35.51c-.23-2.11.11-3.8,1.02-5.07.9-1.27,2.28-2,4.14-2.2,1.85-.2,3.35.23,4.5,1.27,1.15,1.05,1.84,2.63,2.07,4.74l3.8,35.51c.23,2.11-.11,3.8-1.02,5.07Z"/>
  <path class="cls-1" d="M582.87,894.57l7.9-23.83c1.34-4.03,2.22-7.7,2.63-11.03.4-3.33.39-6.21-.05-8.64l-.02-.08c-.89-4.96-2.76-8.48-5.59-10.57-2.83-2.09-6.6-2.71-11.3-1.87-4.67.84-7.93,2.98-9.78,6.4-1.85,3.42-2.25,8.06-1.2,13.9l.03.17,8.38-1.51-.04-.17c-.58-3.24-.49-5.77.27-7.61.76-1.84,2.19-2.95,4.28-3.32,1.75-.32,3.17.03,4.27,1.05,1.1,1.01,1.86,2.67,2.27,4.96l.03.13c.37,2.06.33,4.54-.12,7.43-.45,2.89-1.31,6.15-2.58,9.78l-9.52,27.4,1.26,7,27.93-5.04-1.39-7.73-17.66,3.19Z"/>
  <path class="cls-1" d="M635.11,867.82c-.65-2.5-1.78-4.52-3.36-6.05-1.59-1.53-3.49-2.43-5.7-2.73,1.35-1.74,2.29-3.5,2.82-5.27.52-1.78.6-3.4.22-4.86l-2.26-8.62c-1.06-4.03-2.95-6.85-5.7-8.48s-6.09-1.93-10.03-.9c-4.31,1.13-7.36,3.1-9.16,5.89-1.79,2.8-2.16,6.22-1.11,10.24l1.33,5.07,8.02-2.1-1.28-4.9c-.41-1.58-.28-2.91.4-4.01.68-1.09,1.82-1.85,3.42-2.27,1.52-.4,2.81-.28,3.88.34,1.06.62,1.8,1.72,2.22,3.3l2.21,8.45c.43,1.63.41,2.99-.06,4.08-.47,1.09-1.32,1.79-2.56,2.11l-4.31,1.13,1.99,7.6,4.31-1.13c1.58-.41,2.95-.17,4.12.73,1.17.9,2.02,2.39,2.57,4.47l2.22,8.49c.5,1.89.37,3.48-.37,4.79-.74,1.31-2.02,2.2-3.86,2.68-1.91.5-3.53.42-4.86-.24-1.34-.66-2.22-1.83-2.66-3.52l-1.17-4.48-8.07,2.11,1.32,5.07c.7,2.67,1.85,4.8,3.46,6.38,1.6,1.58,3.59,2.59,5.96,3.02,2.37.43,5.06.25,8.07-.53,4.39-1.15,7.48-3.22,9.27-6.22,1.79-2.99,2.12-6.65.99-10.96l-2.28-8.7Z"/>
</svg>